<svg version="1" xmlns="http://www.w3.org/2000/svg" width="400" height="400" viewBox="0 0 300.000000 300.000000"><path d="M139.6 18c-2.1 10.8-27.5 32.8-51.1 44.4-12.3 6.1-27 11.4-39 14.1-4.4 1-8.4 2.2-8.8 2.5-.5.4 8.5 8.5 20 18.1 34.4 28.6 72.3 61.1 72.3 61.8-.1.3-2.3 1.7-5.1 3-7.3 3.4-14.1 10.7-18.9 20.3-15.7 32 5.6 65.1 33.5 52 20.2-9.6 30.7-40.2 20.6-60.6-1.9-3.9-4.7-7.7-6.8-9.4-5.8-4.5-76-64.6-76.4-65.5-.2-.4 4.6-2.9 10.8-5.6 20.7-9 42.6-23.6 62.9-41.8l10.2-9.1L201.1 70c20.6 15.3 37.5 28.3 37.6 28.7.2.5-1.9 1.6-4.6 2.6-6.7 2.4-16.4 9-20.6 14.1-8 9.8-12.1 24.1-10.3 36.7.9 7.2 2.8 11.1 7.7 16.2 6.9 7.4 14.4 9.5 25.1 7.3 9.3-2 16.2-5.8 23.6-13.1 13.8-13.6 17.8-33.8 9.9-49.5-2.3-4.5-8.5-11-10.5-11-.5 0-27.1-19.6-59-43.5S141.6 15 141.1 15s-1.1 1.4-1.5 3z"/><path d="M163.3 64.4c-6.1 1.9-10.6 5-16 11-15.6 17-17.5 45.6-3.9 58.9 2.3 2.3 21.2 18.6 41.9 36.2l37.6 31.9-7.7 3.2c-23.3 9.4-46.7 24.7-68.9 44.9-4.5 4.1-8.4 7.5-8.7 7.5-.6 0-72-53.2-74.4-55.5-1.1-.9-.2-1.6 4.5-3.3 8.5-3.2 18.2-10.8 23.1-18.2 5.7-8.4 7.7-15.4 7.7-26.5 0-10.2-2.2-16.5-7.8-22.3-5.5-5.8-10.2-7.7-19.2-7.7-7.2 0-8.8.4-15.8 3.7-17.2 8.2-27.7 24.3-27.7 42.4 0 12.4 4.9 21.8 14.8 28.1 3.1 2 30.8 22.5 61.5 45.6 30.8 23 56 41.7 56.1 41.5.1-.2 1.1-2.5 2.1-5.2 3.8-10.4 26.9-30.3 47.5-41 12.8-6.6 26.1-11.6 40.3-15.2 5.9-1.4 10.7-3 10.7-3.3 0-.4-11.8-10.6-26.2-22.7-14.5-12-35.5-29.7-46.7-39.3l-20.3-17.4 5.5-2.8c15-7.6 25.8-27.7 24.4-45.4-.9-10.7-3.2-16.2-9.6-22.5-7.8-7.7-15-9.6-24.8-6.6z"/></svg>